<svg width="14" height="8" viewBox="0 0 14 8" fill="none" xmlns="http://www.w3.org/2000/svg">
<path d="M7.41992 7.67804L13.0699 2.01804C13.1637 1.92508 13.238 1.81448 13.2888 1.69262C13.3396 1.57076 13.3657 1.44006 13.3657 1.30804C13.3657 1.17603 13.3396 1.04533 13.2888 0.923467C13.238 0.801607 13.1637 0.691006 13.0699 0.598043C12.8826 0.411792 12.6291 0.307251 12.3649 0.307251C12.1007 0.307251 11.8473 0.411792 11.6599 0.598043L6.65992 5.54804L1.70992 0.598043C1.52256 0.411792 1.26911 0.30725 1.00492 0.30725C0.740739 0.30725 0.487288 0.411792 0.299925 0.598043C0.205437 0.690658 0.130266 0.801103 0.0787697 0.922978C0.0272731 1.04485 0.000474892 1.17574 -7.44303e-05 1.30804C0.00047488 1.44035 0.0272731 1.57123 0.0787696 1.69311C0.130266 1.81498 0.205437 1.92543 0.299925 2.01804L5.94992 7.67804C6.04357 7.77955 6.15722 7.86056 6.28372 7.91596C6.41022 7.97137 6.54682 7.99998 6.68492 7.99998C6.82303 7.99998 6.95963 7.97137 7.08613 7.91596C7.21263 7.86056 7.32628 7.77955 7.41992 7.67804Z" fill="#BEBEBE"/>
</svg>
