<svg width="22" height="22" viewBox="0 0 22 22" fill="none" xmlns="http://www.w3.org/2000/svg">
<path d="M15.583 18.3334C15.583 17.8272 15.9934 17.4167 16.4997 17.4167C17.0059 17.4167 17.4163 17.8272 17.4163 18.3334C17.4163 18.8397 17.0059 19.2501 16.4997 19.2501C15.9934 19.2501 15.583 18.8397 15.583 18.3334Z" stroke="#1A1A1A" stroke-width="2" stroke-linecap="round" stroke-linejoin="round"/>
<path d="M6.41699 18.3334C6.41699 17.8272 6.8274 17.4167 7.33366 17.4167C7.83992 17.4167 8.25033 17.8272 8.25033 18.3334C8.25033 18.8397 7.83992 19.2501 7.33366 19.2501C6.8274 19.2501 6.41699 18.8397 6.41699 18.3334Z" stroke="#1A1A1A" stroke-width="2" stroke-linecap="round" stroke-linejoin="round"/>
<path d="M2.75 2.75H3.45374C3.89582 2.75 4.27492 3.06552 4.35517 3.50025L6.41667 14.6667" stroke="#1A1A1A" stroke-width="2" stroke-linecap="round" stroke-linejoin="round"/>
<path d="M5.04199 5.5H18.098C18.6875 5.5 19.1238 6.04839 18.9912 6.62279L17.2989 13.9561C17.2029 14.372 16.8326 14.6667 16.4057 14.6667H6.41699" stroke="#1A1A1A" stroke-width="2" stroke-linecap="round" stroke-linejoin="round"/>
</svg>
