<svg display="block" width="24" height="24" viewBox="0 0 24 24" fill="none" xmlns="http://www.w3.org/2000/svg" ><path d="M16.0738 9.34485C15.7786 9.16444 15.3948 9.16444 15.0701 9.34485L12.7675 10.728L11.2029 11.6301L8.90037 13.0132C8.60516 13.1936 8.2214 13.1936 7.89668 13.0132L6.06642 11.9307C5.77122 11.7503 5.56458 11.4196 5.56458 11.0587V8.92389C5.56458 8.56307 5.7417 8.23233 6.06642 8.05192L7.86715 6.99953C8.16236 6.81912 8.54612 6.81912 8.87084 6.99953L10.6716 8.05192C10.9668 8.23233 11.1734 8.56307 11.1734 8.92389V10.307L12.738 9.37492V7.99179C12.738 7.63096 12.5609 7.30021 12.2362 7.1198L8.90037 5.13531C8.60516 4.9549 8.2214 4.9549 7.89668 5.13531L4.50184 7.1198C4.17712 7.30021 4 7.63096 4 7.99179V11.9909C4 12.3517 4.17712 12.6824 4.50184 12.8628L7.89668 14.8473C8.19187 15.0277 8.57564 15.0277 8.90037 14.8473L11.2029 13.4943L12.7675 12.5622L15.0701 11.2091C15.3653 11.0287 15.7491 11.0287 16.0738 11.2091L17.8745 12.2615C18.1697 12.4419 18.3764 12.7726 18.3764 13.1334V15.2683C18.3764 15.6291 18.1993 15.9598 17.8745 16.1402L16.0738 17.2227C15.7786 17.4031 15.3948 17.4031 15.0701 17.2227L13.2694 16.1703C12.9742 15.9899 12.7675 15.6591 12.7675 15.2983V13.9152L11.2029 14.8473V16.2304C11.2029 16.5912 11.3801 16.922 11.7048 17.1024L15.0996 19.0869C15.3948 19.2673 15.7786 19.2673 16.1033 19.0869L19.4982 17.1024C19.7933 16.922 20 16.5912 20 16.2304V12.2314C20 11.8706 19.8228 11.5398 19.4982 11.3594L16.0738 9.34485Z" fill="#333"></path></svg>