<svg width="26" height="26" viewBox="0 0 26 26" fill="none" xmlns="http://www.w3.org/2000/svg">
<path fill-rule="evenodd" clip-rule="evenodd" d="M10.702 8.43526C10.4123 8.725 9.94253 8.725 9.6528 8.43526C9.36306 8.14552 9.36306 7.67575 9.6528 7.38602L12.6205 4.4183L13.1451 3.89368L13.6697 4.4183L16.6374 7.38602C16.9272 7.67575 16.9272 8.14552 16.6374 8.43526C16.3477 8.725 15.878 8.725 15.5883 8.43526L13.8871 6.7341V15.8246C13.8871 16.2343 13.5549 16.5665 13.1451 16.5665C12.7354 16.5665 12.4032 16.2343 12.4032 15.8246V6.7341L10.702 8.43526ZM9.80645 12.6095C8.78207 12.6095 7.95163 13.44 7.95163 14.4644V16.8138C7.95163 18.043 8.94815 19.0396 10.1774 19.0396H16.1128C17.3421 19.0396 18.3386 18.043 18.3386 16.8138V14.4644C18.3386 13.44 17.5082 12.6095 16.4838 12.6095C16.0741 12.6095 15.7419 12.2773 15.7419 11.8676C15.7419 11.4579 16.0741 11.1257 16.4838 11.1257C18.3278 11.1257 19.8225 12.6204 19.8225 14.4644V16.8138C19.8225 18.8626 18.1617 20.5234 16.1128 20.5234H10.1774C8.12864 20.5234 6.46777 18.8626 6.46777 16.8138V14.4644C6.46777 12.6204 7.96255 11.1257 9.80645 11.1257C10.2162 11.1257 10.5484 11.4579 10.5484 11.8676C10.5484 12.2773 10.2162 12.6095 9.80645 12.6095Z" fill="white" fill-opacity="0.6"/>
</svg>
