<svg display="block" width="24" height="24" viewBox="0 0 24 24" fill="none" xmlns="http://www.w3.org/2000/svg" ><path fill-rule="evenodd" clip-rule="evenodd" d="M5.64031 18.0427H4L9.02886 12.3187C9.19073 12.1382 9.19073 11.862 9.02886 11.6815L4.04317 6H5.61873L10.6368 11.724C10.7663 11.8939 10.7879 12.1382 10.6476 12.2974C9.33102 13.7948 5.64031 18.0427 5.64031 18.0427ZM18.9678 6H17.3923L11.0469 13.2745C10.885 13.455 10.8742 13.7417 11.0361 13.9223L11.2087 14.1346L14.6081 18.0427H16.2484L12.5685 13.8267C12.4066 13.6355 12.4174 13.3594 12.5793 13.1789L18.9678 6ZM13.7339 13.3912C13.7015 13.5399 13.7339 13.7098 13.8418 13.8266C14.7591 14.878 17.5109 18.0426 17.5109 18.0426H19.0002L14.3059 12.7009L13.885 13.1576C13.8202 13.2213 13.7663 13.3062 13.7339 13.3912ZM6.87061 6H8.38142C8.38142 6 11.0901 9.18589 12.0613 10.1629C12.2232 10.3222 12.1908 10.524 12.0505 10.6833C11.5326 11.2886 11.5218 11.2992 11.5218 11.2992L6.87061 6ZM12.9138 9.69564L16.1404 6H14.608L12.9246 7.93277L12.4389 8.49562C12.2771 8.67615 12.2663 8.95226 12.4282 9.14341C12.5469 9.28147 12.9138 9.69564 12.9138 9.69564ZM6.88135 18.0426L10.108 14.3469L10.5828 14.8991C10.7447 15.0903 10.7339 15.3664 10.5721 15.5469L10.0864 16.1098L8.40296 18.0426H6.88135Z" fill="#333"></path></svg>