<svg display="block" width="24" height="24" viewBox="0 0 24 24" fill="none" xmlns="http://www.w3.org/2000/svg" ><path d="M14.0681 19.5608C13.0032 19.5608 12.2276 19.2934 11.7403 18.7587C11.2535 18.2241 11.0099 17.6476 11.0099 17.0298C11.0099 16.804 11.0522 16.6139 11.1372 16.4595C11.2201 16.3071 11.3404 16.1808 11.4857 16.0939C11.6329 16.0047 11.814 15.9603 12.0293 15.9603C12.2447 15.9603 12.4256 16.0047 12.573 16.0939C12.7202 16.183 12.8363 16.305 12.9213 16.4595C13.0062 16.6139 13.0486 16.804 13.0486 17.0298C13.0486 17.3031 12.9863 17.5258 12.8618 17.6982C12.7371 17.8706 12.5899 17.9833 12.42 18.037C12.5674 18.2506 12.7996 18.4021 13.1167 18.4913C13.4338 18.5865 13.751 18.6339 14.0681 18.6339C14.5097 18.6339 14.909 18.5092 15.2659 18.2597C15.6226 18.01 15.8861 17.6417 16.056 17.1546C16.226 16.6674 16.3109 16.1147 16.3109 15.4967C16.3109 14.8254 16.2173 14.2519 16.0305 13.7767C15.8491 13.2955 15.5802 12.939 15.2233 12.7072C14.8774 12.4788 14.4768 12.3583 14.0681 12.3598C13.7961 12.3598 13.4565 12.4786 13.0486 12.7163L12.3011 13.1084V12.7163L15.6652 8.01058H11.0099V12.8943C11.0099 13.2984 11.0948 13.6311 11.2647 13.8926C11.4346 14.1541 11.6951 14.2848 12.0464 14.2848C12.3179 14.2848 12.5786 14.1897 12.8279 13.9994C13.0787 13.8075 13.297 13.5726 13.4734 13.3046C13.4961 13.2508 13.5244 13.2123 13.5583 13.1884C13.5889 13.1602 13.6281 13.1444 13.6688 13.144C13.7311 13.144 13.8046 13.1767 13.8897 13.2422C13.9691 13.337 14.0086 13.447 14.0086 13.5717C13.9989 13.6557 13.9847 13.7391 13.966 13.8214C13.7737 14.273 13.5073 14.6175 13.1675 14.8551C12.8367 15.0899 12.4458 15.2142 12.0464 15.2117C11.0382 15.2117 10.3414 15.0037 9.95643 14.588C9.57143 14.1718 9.37881 13.6073 9.37881 12.8945V8.01058H7V7.10136H9.37881V5.03395L8.83513 4.46308V4H10.4151L11.0096 4.32067V7.10136L17.1603 7.08368L17.772 7.72527L14.0002 11.6823C14.2286 11.5868 14.469 11.5268 14.7138 11.5041C15.1215 11.5041 15.5802 11.6408 16.09 11.9141C16.6053 12.1815 17.0018 12.55 17.2791 13.019C17.5567 13.4826 17.7351 13.9282 17.8144 14.356C17.8994 14.7839 17.942 15.164 17.942 15.4967C17.942 16.2574 17.7889 16.9643 17.4832 17.6181C17.1773 18.2715 16.713 18.7587 16.09 19.0796C15.467 19.4005 14.7929 19.5608 14.0681 19.5608Z" fill="#333"></path></svg>