<svg width="25" height="24" viewBox="0 0 25 24" fill="none" xmlns="http://www.w3.org/2000/svg">
<g opacity="0.6">
<path d="M16.0605 12.9V17.1C16.0605 20.6 14.6605 22 11.1605 22H6.96055C3.46055 22 2.06055 20.6 2.06055 17.1V12.9C2.06055 9.4 3.46055 8 6.96055 8H11.1605C14.6605 8 16.0605 9.4 16.0605 12.9Z" fill="white"/>
<path d="M17.1603 2H12.9603C9.87723 2 8.43129 3.09409 8.13005 5.73901C8.06703 6.29235 8.52531 6.75 9.08222 6.75H11.1603C15.3603 6.75 17.3103 8.7 17.3103 12.9V14.9781C17.3103 15.535 17.768 15.9933 18.3213 15.9303C20.9662 15.629 22.0603 14.1831 22.0603 11.1V6.9C22.0603 3.4 20.6603 2 17.1603 2Z" fill="white"/>
</g>
</svg>
