<svg width="26" height="26" viewBox="0 0 26 26" fill="none" xmlns="http://www.w3.org/2000/svg">
<path fill-rule="evenodd" clip-rule="evenodd" d="M9.15702 6.41647C7.06251 6.41647 5.35721 8.12173 5.35721 10.2163C5.35721 10.9096 5.54533 11.5864 5.90027 12.1752L5.90715 12.1867C6.79781 13.6395 8.49409 15.2817 10.0553 16.6147C11.2839 17.6635 12.3805 18.4807 12.828 18.8068C13.2757 18.4807 14.3724 17.6634 15.6009 16.6145C17.1627 15.2811 18.8596 13.6381 19.7498 12.1852L19.7518 12.1818L19.7558 12.1752C20.1107 11.5864 20.2988 10.9096 20.2988 10.2163C20.2988 8.12178 18.5935 6.41647 16.499 6.41647C15.2861 6.41647 14.1596 6.99263 13.4485 7.95005L12.828 8.7853L12.2076 7.95004C11.4966 6.99274 10.3702 6.41647 9.15702 6.41647ZM19.7465 12.1911C19.7456 12.1927 19.7449 12.1939 19.7446 12.1945L19.7455 12.1928L19.7465 12.1911ZM12.8244 18.8875C12.8257 18.8875 12.8269 18.8874 12.8281 18.8874C12.8296 18.8874 12.8309 18.8875 12.8323 18.8875C12.8343 18.8876 12.8363 18.8877 12.8383 18.8878V19.635L12.8311 19.2447L12.8283 19.099L12.8244 18.8875ZM12.8462 20.4329C13.0763 20.4314 13.3114 20.3619 13.5151 20.217C13.6348 20.132 15.0117 19.1499 16.6045 17.79C18.1766 16.4479 20.037 14.6729 21.0652 12.997C21.0724 12.9855 21.078 12.9762 21.0816 12.97L21.0838 12.9662C21.5819 12.137 21.8445 11.1867 21.8445 10.2163C21.8445 7.26814 19.4473 4.87079 16.499 4.87079C15.1124 4.87079 13.8058 5.40641 12.828 6.33001C11.8503 5.40649 10.5438 4.87079 9.15702 4.87079C6.20887 4.87079 3.81152 7.26805 3.81152 10.2163C3.81152 11.1894 4.07567 12.1423 4.57649 12.9732L4.58502 12.9874L4.58686 12.9905C5.61437 14.6685 7.47755 16.4462 9.05172 17.7902C10.6438 19.1495 12.02 20.1311 12.1408 20.2169M19.7446 12.1945C19.7443 12.1948 19.7443 12.1948 19.7446 12.1945Z" fill="white" fill-opacity="0.6"/>
</svg>
