<svg width="53" height="48" viewBox="0 0 53 48" fill="none" xmlns="http://www.w3.org/2000/svg">
<path d="M39.2315 10.975C38.1651 7.43471 35.8624 4.39534 32.7428 2.41058C29.6233 0.425812 25.8946 -0.372262 22.236 0.161746C18.5774 0.695754 15.2323 2.52631 12.8103 5.31991C10.3882 8.11352 9.05027 11.6843 9.04026 15.3816V15.602C6.36287 16.1456 3.98299 17.6647 2.36264 19.8644C0.742285 22.064 -0.00294505 24.7873 0.271621 27.5055C0.546186 30.2237 1.82096 32.7429 3.84847 34.5741C5.87598 36.4053 8.51157 37.4178 11.2436 37.415H17.8536C18.438 37.415 18.9984 37.1829 19.4116 36.7697C19.8248 36.3565 20.0569 35.796 20.0569 35.2117C20.0569 34.6273 19.8248 34.0669 19.4116 33.6537C18.9984 33.2405 18.438 33.0083 17.8536 33.0083H11.2436C9.49051 33.0222 7.80372 32.3391 6.55429 31.1093C5.30486 29.8795 4.59514 28.2037 4.58126 26.4507C4.56738 24.6976 5.25048 23.0108 6.48028 21.7613C7.71009 20.5119 9.38586 19.8022 11.1389 19.7883H11.4088C11.731 19.7827 12.0485 19.7114 12.3421 19.5788C12.6357 19.4462 12.8992 19.2551 13.1164 19.0171C13.3269 18.772 13.481 18.4836 13.5676 18.1723C13.6542 17.8611 13.6713 17.5345 13.6177 17.2159C13.3087 15.7551 13.3 14.2467 13.5919 12.7823C13.8838 11.318 14.4704 9.92829 15.316 8.69763C16.1616 7.46697 17.2485 6.42104 18.5107 5.62338C19.773 4.82572 21.1842 4.29297 22.6586 4.05751C24.1331 3.82204 25.6401 3.88876 27.088 4.25363C28.5359 4.61849 29.8945 5.27388 31.0813 6.17998C32.2681 7.08608 33.2583 8.22398 33.9918 9.52456C34.7253 10.8251 35.1867 12.2613 35.3481 13.7457C35.3925 14.0443 35.4977 14.3305 35.6573 14.5868C35.8169 14.843 36.0275 15.0637 36.2759 15.2352C36.5243 15.4066 36.8053 15.5252 37.1015 15.5836C37.3977 15.642 37.7027 15.6388 37.9976 15.5744C38.6187 15.4431 39.2521 15.3785 39.887 15.3816C42.2244 15.3816 44.4661 16.3102 46.1189 17.963C47.7718 19.6158 48.7003 21.8575 48.7003 24.195C48.7003 26.5324 47.7718 28.7741 46.1189 30.427C44.4661 32.0798 42.2244 33.0083 39.887 33.0083H35.4803C34.8959 33.0083 34.3355 33.2405 33.9223 33.6537C33.5091 34.0669 33.277 34.6273 33.277 35.2117C33.277 35.796 33.5091 36.3565 33.9223 36.7697C34.3355 37.1829 34.8959 37.415 35.4803 37.415H39.887C41.623 37.372 43.3336 36.9874 44.9211 36.2833C46.5086 35.5791 47.9418 34.5692 49.1389 33.3112C50.3361 32.0532 51.2737 30.5717 51.8983 28.9513C52.523 27.3309 52.8223 25.6033 52.7792 23.8672C52.7362 22.1312 52.3516 20.4206 51.6475 18.8331C50.9434 17.2457 49.9335 15.8124 48.6754 14.6153C47.4174 13.4181 45.9359 12.4805 44.3155 11.8559C42.6951 11.2313 40.9676 10.9319 39.2315 10.975Z" fill="black" fill-opacity="0.4"/>
<path d="M26.6573 47.3735C26.073 47.3735 25.5126 47.1414 25.0993 46.7282C24.6861 46.315 24.454 45.7546 24.454 45.1702V26.2546L21.6062 29.1024C21.1928 29.5158 20.632 29.7481 20.0473 29.7481C19.4626 29.7481 18.9019 29.5158 18.4885 29.1024C18.075 28.6889 17.8428 28.1282 17.8428 27.5435C17.8428 26.9588 18.075 26.3981 18.4885 25.9846L25.0985 19.3746C25.3031 19.1698 25.5461 19.0073 25.8136 18.8964C26.0811 18.7855 26.3678 18.7284 26.6573 18.7284C26.9469 18.7284 27.2336 18.7855 27.5011 18.8964C27.7686 19.0073 28.0116 19.1698 28.2162 19.3746L34.8262 25.9846C35.2396 26.3981 35.4719 26.9588 35.4719 27.5435C35.4719 28.1282 35.2396 28.6889 34.8262 29.1024C34.4128 29.5158 33.852 29.7481 33.2674 29.7481C32.6827 29.7481 32.1219 29.5158 31.7085 29.1024L28.8607 26.2546V45.1702C28.8607 45.7546 28.6285 46.315 28.2153 46.7282C27.8021 47.1414 27.2417 47.3735 26.6573 47.3735Z" fill="black" fill-opacity="0.4"/>
</svg>
