<?xml version="1.0" encoding="UTF-8"?>
<svg width="455px" height="401px" viewBox="0 0 455 401" version="1.1" xmlns="http://www.w3.org/2000/svg" xmlns:xlink="http://www.w3.org/1999/xlink">
    <defs>
        <linearGradient x1="74.9399892%" y1="11.5546093%" x2="25.0201042%" y2="88.3710211%" id="linearGradient-1">
            <stop stop-color="#00FF99" offset="0%"></stop>
            <stop stop-color="#00FF55" offset="100%"></stop>
        </linearGradient>
    </defs>
    <g id="PulseX.com" stroke="none" stroke-width="1" fill="none" fill-rule="evenodd">
        <g id="Proposal" transform="translate(-50.000000, -80.000000)" fill="url(#linearGradient-1)">
            <path d="M380.095763,80 C387.955606,80 395.2184,84.1931763 399.148322,91 L500.661368,266.825754 C505.484453,275.179583 505.484453,285.471925 500.661368,293.825754 L399.148322,469.651507 C395.2184,476.458331 387.955606,480.651507 380.095763,480.651507 L174.182919,480.651507 C166.323076,480.651507 159.060282,476.458331 155.13036,469.651507 L53.6173141,293.825754 C48.7942286,285.471925 48.7942286,275.179583 53.6173141,266.825754 L155.13036,91 C159.060282,84.1931763 166.323076,80 174.182919,80 L380.095763,80 Z M396,144 L345.059506,144 C337.691448,144 330.884868,147.936719 327.210596,154.323268 L177.239564,415 L227.809801,415 C235.170012,415 241.970589,411.071591 245.64775,404.695761 L396,144 Z M313.442,314.60413 L282.287,368.84813 L297.920887,396.164621 C299.754913,399.369329 303.164598,401.346565 306.856996,401.346565 L363.041742,401.346565 L313.442,314.60413 Z M225.295741,170.89313 L169,170.89313 L235.321,286.78113 L266.496,232.50213 L234.233748,176.078391 C232.400233,172.871817 228.989505,170.89313 225.295741,170.89313 Z" id="INC"></path>
        </g>
    </g>
</svg>