<svg width="24" height="24" viewBox="0 0 24 24" fill="none" xmlns="http://www.w3.org/2000/svg">
<path opacity="0.05" d="M23.8734 11.9999C23.8734 18.5925 18.5292 23.9368 11.9368 23.9368C5.34424 23.9368 0 18.5925 0 11.9999C0 5.40747 5.34424 0.0632324 11.9368 0.0632324C18.5292 0.0632324 23.8734 5.40747 23.8734 11.9999Z" fill="#505050"/>
<path d="M11.9373 3.99976L11.8281 4.37085V15.139L11.9373 15.248L16.9358 12.2934L11.9373 3.99976Z" fill="#0C0218" fill-opacity="0.8"/>
<path d="M11.9369 3.99976L6.93848 12.2934L11.9369 15.2481V10.0215V3.99976Z" fill="#0C0218" fill-opacity="0.8"/>
<path d="M11.9365 16.8742L11.875 16.9492V20.7851L11.9365 20.9648L16.938 13.9211L11.9365 16.8742Z" fill="#0C0218" fill-opacity="0.8"/>
<path d="M11.9369 20.9648V16.8742L6.93848 13.9211L11.9369 20.9648Z" fill="#0C0218" fill-opacity="0.8"/>
<path d="M11.9365 15.248L16.9349 12.2934L11.9365 10.0215V15.248Z" fill="#0C0218" fill-opacity="0.8"/>
<path d="M6.93848 12.2934L11.9369 15.248V10.0215L6.93848 12.2934Z" fill="#0C0218" fill-opacity="0.8"/>
</svg>
