<svg width="20" height="21" viewBox="0 0 20 21" fill="none" xmlns="http://www.w3.org/2000/svg">
<path d="M8 2.5C4.68629 2.5 2 5.18629 2 8.5C2 11.8137 4.68629 14.5 8 14.5C11.3137 14.5 14 11.8137 14 8.5C14 5.18629 11.3137 2.5 8 2.5ZM0 8.5C0 4.08172 3.58172 0.5 8 0.5C12.4183 0.5 16 4.08172 16 8.5C16 10.3487 15.3729 12.051 14.3199 13.4056L19.7071 18.7929C20.0976 19.1834 20.0976 19.8166 19.7071 20.2071C19.3166 20.5976 18.6834 20.5976 18.2929 20.2071L12.9056 14.8199C11.551 15.8729 9.84871 16.5 8 16.5C3.58172 16.5 0 12.9183 0 8.5Z" fill="#878787"/>
</svg>
