<svg width="24" height="24" viewBox="0 0 24 24" fill="none" xmlns="http://www.w3.org/2000/svg">
<g clip-path="url(#clip0)">
<path d="M16.9799 -4.09079e-05C17.9168 -0.0323878 18.8504 0.126498 19.7238 0.466919C20.5972 0.807341 21.3921 1.32216 22.0599 1.97996C22.7037 2.64776 23.2071 3.43785 23.5403 4.30351C23.8735 5.16918 24.0298 6.09286 23.9999 7.01996V16.98C23.9999 19.06 23.3199 20.85 22.0199 22.11C20.6409 23.3832 18.8159 24.0622 16.9399 24H7.05994C5.1997 24.0576 3.39195 23.3783 2.02994 22.11C1.35479 21.4337 0.826124 20.6257 0.476874 19.7362C0.127625 18.8468 -0.0347233 17.8949 -5.68596e-05 16.94V7.01996C-5.68596e-05 2.79996 2.79994 -4.09079e-05 7.01994 -4.09079e-05H16.9799ZM17.0299 2.22996H7.05994C5.60994 2.22996 4.35994 2.65996 3.52994 3.47996C3.08644 3.95235 2.74273 4.5093 2.51936 5.11754C2.296 5.72578 2.19756 6.37281 2.22994 7.01996V16.94C2.22994 18.44 2.65994 19.64 3.52994 20.52C4.50026 21.3782 5.76578 21.8263 7.05994 21.77H16.9399C18.2341 21.8263 19.4996 21.3782 20.4699 20.52C20.9358 20.0591 21.3008 19.5064 21.5418 18.897C21.7828 18.2876 21.8945 17.6348 21.8699 16.98V7.01996C21.9022 5.73262 21.4365 4.48248 20.5699 3.52996C20.0976 3.08645 19.5406 2.74274 18.9324 2.51938C18.3241 2.29602 17.6771 2.19758 17.0299 2.22996V2.22996ZM11.9999 5.75996C15.3899 5.75996 18.1999 8.55996 18.1999 11.96C18.1999 13.6043 17.5467 15.1813 16.384 16.344C15.2213 17.5067 13.6443 18.16 11.9999 18.16C10.3556 18.16 8.77861 17.5067 7.61588 16.344C6.45316 15.1813 5.79994 13.6043 5.79994 11.96C5.79994 10.3156 6.45316 8.73862 7.61588 7.5759C8.77861 6.41317 10.3556 5.75996 11.9999 5.75996V5.75996ZM11.9999 7.97996C10.9487 7.98522 9.94192 8.40517 9.19854 9.14855C8.45515 9.89194 8.0352 10.8987 8.02994 11.95C8.0352 13.0012 8.45515 14.008 9.19854 14.7514C9.94192 15.4947 10.9487 15.9147 11.9999 15.92C13.0512 15.9147 14.058 15.4947 14.8013 14.7514C15.5447 14.008 15.9647 13.0012 15.9699 11.95C15.9647 10.8987 15.5447 9.89194 14.8013 9.14855C14.058 8.40517 13.0512 7.98522 11.9999 7.97996V7.97996ZM18.4399 4.20996C18.8112 4.20996 19.1673 4.35746 19.4299 4.62001C19.6924 4.88256 19.8399 5.23866 19.8399 5.60996C19.8399 5.98126 19.6924 6.33736 19.4299 6.59991C19.1673 6.86246 18.8112 7.00996 18.4399 7.00996C18.0686 7.00996 17.7125 6.86246 17.45 6.59991C17.1874 6.33736 17.0399 5.98126 17.0399 5.60996C17.0399 5.23866 17.1874 4.88256 17.45 4.62001C17.7125 4.35746 18.0686 4.20996 18.4399 4.20996Z" fill="black"/>
</g>
<defs>
<clipPath id="clip0">
<rect width="24" height="24" fill="white"/>
</clipPath>
</defs>
</svg>
