<svg width="16" height="16" viewBox="0 0 16 16" fill="none" xmlns="http://www.w3.org/2000/svg">
<path d="M7.99903 4.91797C6.29633 4.91797 4.91699 6.29797 4.91699 7.99998C4.91699 9.70265 6.29633 11.0826 7.99903 11.0826C9.70036 11.0826 11.081 9.70265 11.081 7.99998C11.081 6.29797 9.70036 4.91797 7.99903 4.91797ZM7.99903 10.0026C6.89303 10.0026 5.99633 9.10598 5.99633 8.00065C5.99633 6.89465 6.89303 5.99864 7.99903 5.99864C9.10503 5.99864 10.0004 6.89465 10.0004 8.00065C10.0004 9.10598 9.10503 10.0026 7.99903 10.0026Z" fill="white"/>
<path d="M11.204 5.52327C11.6009 5.52327 11.9227 5.20152 11.9227 4.8046C11.9227 4.4077 11.6009 4.08594 11.204 4.08594C10.8071 4.08594 10.4854 4.4077 10.4854 4.8046C10.4854 5.20152 10.8071 5.52327 11.204 5.52327Z" fill="white"/>
<path d="M13.6883 4.07384C13.3757 3.26784 12.739 2.63051 11.933 2.31917C11.467 2.14384 10.9743 2.04984 10.4757 2.03917C9.83368 2.01117 9.63034 2.00317 8.00234 2.00317C6.37431 2.00317 6.16564 2.00317 5.52898 2.03917C5.03164 2.04917 4.53898 2.14317 4.07298 2.31917C3.26631 2.63051 2.62964 3.26784 2.31764 4.07384C2.14231 4.54051 2.04831 5.03251 2.03831 5.53117C2.00964 6.17251 2.00098 6.37584 2.00098 8.00452C2.00098 9.63252 2.00098 9.83985 2.03831 10.4779C2.04831 10.9765 2.14231 11.4685 2.31764 11.9359C2.63031 12.7412 3.26698 13.3785 4.07364 13.6905C4.53764 13.8719 5.03031 13.9745 5.53031 13.9905C6.17231 14.0185 6.37564 14.0272 8.00368 14.0272C9.63168 14.0272 9.84034 14.0272 10.477 13.9905C10.975 13.9805 11.4677 13.8859 11.9343 13.7112C12.7403 13.3985 13.377 12.7619 13.6897 11.9559C13.865 11.4892 13.959 10.9972 13.969 10.4985C13.9977 9.85719 14.0063 9.65385 14.0063 8.02519C14.0063 6.39651 14.0063 6.18984 13.969 5.55184C13.9603 5.04651 13.867 4.54584 13.6883 4.07384ZM12.8763 10.4285C12.8717 10.8125 12.8023 11.1932 12.669 11.5539C12.4657 12.0785 12.0517 12.4932 11.5277 12.6945C11.171 12.8272 10.795 12.8965 10.4143 12.9019C9.78101 12.9312 9.60234 12.9385 7.97834 12.9385C6.35298 12.9385 6.18698 12.9385 5.54164 12.9019C5.16231 12.8972 4.78498 12.8272 4.42898 12.6945C3.90298 12.4939 3.48631 12.0792 3.28298 11.5539C3.15231 11.1979 3.08164 10.8212 3.07564 10.4412C3.04698 9.80785 3.04031 9.62919 3.04031 8.00519C3.04031 6.38051 3.04031 6.21451 3.07564 5.56851C3.08031 5.18451 3.14964 4.80451 3.28298 4.44384C3.48631 3.91784 3.90298 3.50384 4.42898 3.30251C4.78498 3.17051 5.16231 3.10051 5.54164 3.09517C6.17564 3.06651 6.35364 3.05851 7.97834 3.05851C9.60301 3.05851 9.76968 3.05851 10.4143 3.09517C10.795 3.09984 11.171 3.16984 11.5277 3.30251C12.0517 3.50451 12.4657 3.91917 12.669 4.44384C12.7997 4.79984 12.8703 5.17651 12.8763 5.55651C12.905 6.19051 12.9123 6.36851 12.9123 7.99319C12.9123 9.61719 12.9123 9.79185 12.8837 10.4292L12.8763 10.4285Z" fill="white"/>
</svg>
