<svg width="16" height="16" viewBox="0 0 16 16" fill="none" xmlns="http://www.w3.org/2000/svg">
<path d="M12.6202 3.55095C11.7704 3.14169 10.8591 2.84017 9.90627 2.66747C9.88894 2.66414 9.87161 2.67247 9.86267 2.68913C9.74547 2.90791 9.61561 3.19333 9.52474 3.41767C8.49987 3.25664 7.48034 3.25664 6.47652 3.41767C6.38559 3.18835 6.25105 2.90791 6.13333 2.68913C6.12439 2.67302 6.10705 2.66469 6.0897 2.66747C5.1374 2.83961 4.22609 3.14114 3.37575 3.55095C3.36839 3.55429 3.36208 3.55985 3.35789 3.56706C1.62933 6.27748 1.15581 8.92128 1.38811 11.5323C1.38916 11.5451 1.39599 11.5573 1.40545 11.5651C2.5459 12.4441 3.65062 12.9777 4.73483 13.3315C4.75218 13.337 4.77057 13.3303 4.78161 13.3153C5.03808 12.9477 5.2667 12.5601 5.46271 12.1525C5.47429 12.1287 5.46324 12.1003 5.4396 12.0909C5.07697 11.9465 4.73167 11.7705 4.39952 11.5706C4.37325 11.5545 4.37115 11.5151 4.39532 11.4962C4.46521 11.4412 4.53513 11.384 4.60187 11.3263C4.61395 11.3157 4.63077 11.3135 4.64497 11.3201C6.82707 12.3658 9.18941 12.3658 11.3457 11.3201C11.3599 11.3129 11.3768 11.3151 11.3894 11.3257C11.4561 11.3835 11.526 11.4412 11.5965 11.4962C11.6206 11.5151 11.6191 11.5545 11.5928 11.5706C11.2606 11.7744 10.9153 11.9465 10.5522 12.0903C10.5285 12.0998 10.518 12.1287 10.5296 12.1525C10.7298 12.5596 10.9584 12.9472 11.2101 13.3148C11.2207 13.3303 11.2396 13.337 11.2569 13.3315C12.3464 12.9777 13.4511 12.4441 14.5916 11.5651C14.6015 11.5573 14.6079 11.5456 14.6089 11.5329C14.8869 8.51421 14.1433 5.89211 12.6375 3.56761C12.6339 3.55985 12.6276 3.55429 12.6202 3.55095ZM5.78857 9.94248C5.13162 9.94248 4.5903 9.30941 4.5903 8.53201C4.5903 7.75455 5.12112 7.12155 5.78857 7.12155C6.46127 7.12155 6.99734 7.76015 6.98681 8.53201C6.98681 9.30941 6.45601 9.94248 5.78857 9.94248ZM10.219 9.94248C9.56201 9.94248 9.02074 9.30941 9.02074 8.53201C9.02074 7.75455 9.55154 7.12155 10.219 7.12155C10.8917 7.12155 11.4277 7.76015 11.4173 8.53201C11.4173 9.30941 10.8917 9.94248 10.219 9.94248Z" fill="white"/>
</svg>
