<svg width="24" height="24" viewBox="0 0 24 24" fill="none" xmlns="http://www.w3.org/2000/svg">
<g clip-path="url(#clip0)">
<path d="M24 4.37C23.1034 4.78044 22.1488 5.05027 21.17 5.17C22.2083 4.52999 22.9793 3.53517 23.34 2.37C22.39 2.95 21.34 3.37 20.21 3.59C19.754 3.0886 19.1981 2.68813 18.5781 2.4143C17.9582 2.14048 17.2878 1.99936 16.61 2C15.856 2.00771 15.1136 2.18618 14.4385 2.52201C13.7634 2.85784 13.1732 3.3423 12.7122 3.93898C12.2512 4.53566 11.9315 5.22905 11.7769 5.96706C11.6224 6.70507 11.6371 7.4685 11.82 8.2C9.84996 8.09245 7.92553 7.56584 6.17521 6.65533C4.4249 5.74482 2.88897 4.47137 1.67 2.92C1.03409 4.03248 0.838449 5.34298 1.12171 6.59268C1.40498 7.84238 2.14656 8.94044 3.2 9.67C2.41565 9.64141 1.65014 9.42172 0.97 9.03V9.1C0.97 11.54 2.67 13.58 4.92 14.05C4.19621 14.2484 3.43619 14.2758 2.7 14.13C3.33 16.14 5.15 17.6 7.3 17.64C6.2865 18.4622 5.11782 19.0718 3.86363 19.4326C2.60945 19.7934 1.29545 19.898 0 19.74C2.24048 21.2176 4.86613 22.0036 7.55 22C16.61 22 21.55 14.3 21.55 7.63V6.98C22.51 6.27 23.34 5.38 24 4.37V4.37Z" fill="black"/>
</g>
<defs>
<clipPath id="clip0">
<rect width="24" height="24" fill="white"/>
</clipPath>
</defs>
</svg>
