<svg width="24" height="24" viewBox="0 0 24 24" fill="none" xmlns="http://www.w3.org/2000/svg">
<path d="M24 12.1949C24 10.7008 22.819 9.48819 21.3638 9.48819C20.6467 9.48819 20.0141 9.76968 19.5501 10.2461C17.7575 8.9252 15.2689 8.05906 12.5272 7.95079L13.7293 2.16929L17.6309 3.01378C17.6731 4.0315 18.4956 4.85433 19.5079 4.85433C20.5413 4.85433 21.3849 3.98819 21.3849 2.92717C21.3849 1.86614 20.5413 1 19.5079 1C18.7698 1 18.1371 1.43307 17.8418 2.08268L13.4763 1.12992C13.3497 1.10827 13.2232 1.12992 13.1178 1.19488C13.0123 1.25984 12.949 1.36811 12.9069 1.49803L11.5782 7.95079C8.77329 8.0374 6.26362 8.88189 4.44991 10.2461C3.98594 9.79134 3.33216 9.48819 2.6362 9.48819C1.18102 9.48819 0 10.7008 0 12.1949C0 13.2992 0.632689 14.2303 1.56063 14.6634C1.51845 14.9232 1.49736 15.2047 1.49736 15.4862C1.49736 19.6437 6.20035 23 12.0211 23C17.8418 23 22.5448 19.6437 22.5448 15.4862C22.5448 15.2047 22.5237 14.9449 22.4815 14.685C23.3462 14.252 24 13.2992 24 12.1949ZM5.96836 14.122C5.96836 13.061 6.81195 12.1949 7.84534 12.1949C8.87874 12.1949 9.72232 13.061 9.72232 14.122C9.72232 15.1831 8.87874 16.0492 7.84534 16.0492C6.81195 16.0492 5.96836 15.1831 5.96836 14.122ZM16.4499 19.2106C15.1634 20.5315 12.717 20.6181 12 20.6181C11.283 20.6181 8.81546 20.5098 7.55009 19.2106C7.36028 19.0157 7.36028 18.6909 7.55009 18.4961C7.73989 18.3012 8.05624 18.3012 8.24605 18.4961C9.04745 19.3189 10.7768 19.622 12.0211 19.622C13.2654 19.622 14.9736 19.3189 15.7961 18.4961C15.9859 18.3012 16.3023 18.3012 16.4921 18.4961C16.6397 18.7126 16.6397 19.0157 16.4499 19.2106ZM16.1125 16.0492C15.0791 16.0492 14.2355 15.1831 14.2355 14.122C14.2355 13.061 15.0791 12.1949 16.1125 12.1949C17.1459 12.1949 17.9895 13.061 17.9895 14.122C17.9895 15.1831 17.1459 16.0492 16.1125 16.0492Z" fill="#f0f"/>
</svg>
