<?xml version="1.0" encoding="utf-8"?>
<!-- Generator: Adobe Illustrator 21.0.0, SVG Export Plug-In . SVG Version: 6.00 Build 0)  -->
<svg version="1.1" id="Layer_1" xmlns="http://www.w3.org/2000/svg" xmlns:xlink="http://www.w3.org/1999/xlink" x="0px" y="0px"
	 viewBox="0 0 512 512" style="enable-background:new 0 0 512 512;" xml:space="preserve">
<g>
	<path d="M474.1,26.1c-6.6,0.3-12.8,2.2-18.4,4.4h-0.1c-5.6,2.2-32.3,13.5-72.9,30.5c-40.5,17.1-93.2,39.2-145.4,61.2
		C133,166.1,30.5,209.4,30.5,209.4l1.2-0.5c0,0-7.1,2.3-14.5,7.4c-3.8,2.5-7.9,5.8-11.5,11.2c-3.6,5.3-6.5,13.5-5.5,21.9
		c1.8,14.2,11,22.8,17.6,27.5c6.7,4.8,13.1,7,13.1,7h0.2l96.2,32.4c4.3,13.8,29.3,96,35.3,114.9c3.5,11.3,7,18.4,11.3,23.8
		c2.1,2.8,4.5,5.1,7.5,6.9l3.6,1.7l1.2,0.4l-1-0.2l0.8,0.4l2.3,0.5c15.2,4.6,27.5-4.8,27.5-4.8l0.7-0.5l56.8-51.7l95.2,73l2.2,0.9
		c19.9,8.7,39.9,3.8,50.5-4.7c10.7-8.6,14.8-19.6,14.8-19.6l0.7-1.8l73.6-376.8c2.1-9.3,2.6-18,0.3-26.5s-8.2-16.4-15.4-20.6
		C487.9,27.1,480.7,25.8,474.1,26.1z M472.1,66.5c-0.1,1.2,0.2,1.1-0.4,3.5v0.2L398.9,443l-2.3,2.8c-1.5,1.2-2.8,2-9.2-0.5
		L271,356.1l-70.3,64.1l14.8-94.3c0,0,182.3-170,190.2-177.3s5.2-8.8,5.2-8.8c0.5-8.9-11.8-2.6-11.8-2.6L159.2,285.7l-0.1-0.4
		L44.2,246.6v-0.1l-0.3-0.1l0.6-0.2l0.6-0.3l0.6-0.2c0,0,102.6-43.2,207-87.2c52.2-22,104.9-44.2,145.3-61.2
		c40.5-17,70.4-29.5,72.1-30.2L472.1,66.5z"/>
</g>
</svg>
