<svg width="37" height="38" viewBox="0 0 37 38" fill="none" xmlns="http://www.w3.org/2000/svg">
<path d="M16.5795 5.76077C17.6862 4.8177 19.3138 4.8177 20.4205 5.76077L22.3028 7.36487C22.777 7.769 23.3666 8.01323 23.9877 8.0628L26.453 8.25953C27.9024 8.37519 29.0533 9.52611 29.1689 10.9755L29.3657 13.4407C29.4152 14.0618 29.6595 14.6515 30.0636 15.1257L31.6677 17.008C32.6108 18.1146 32.6108 19.7423 31.6677 20.8489L30.0636 22.7313C29.6595 23.2055 29.4152 23.7951 29.3657 24.4162L29.1689 26.8815C29.0533 28.3308 27.9024 29.4817 26.453 29.5974L23.9877 29.7941C23.3666 29.8437 22.777 30.0879 22.3028 30.4921L20.4205 32.0962C19.3138 33.0392 17.6862 33.0392 16.5795 32.0962L14.6972 30.4921C14.223 30.0879 13.6334 29.8437 13.0123 29.7941L10.547 29.5974C9.09764 29.4817 7.94672 28.3308 7.83106 26.8815L7.63433 24.4162C7.58477 23.7951 7.34054 23.2055 6.93641 22.7313L5.33231 20.8489C4.38923 19.7423 4.38923 18.1146 5.33231 17.008L6.93641 15.1257C7.34054 14.6515 7.58477 14.0618 7.63433 13.4407L7.83106 10.9755C7.94672 9.52611 9.09764 8.37519 10.547 8.25953L13.0123 8.0628C13.6334 8.01323 14.223 7.769 14.6972 7.36487L16.5795 5.76077Z" fill="#F24822" stroke="#F24822" stroke-width="2" stroke-linecap="round" stroke-linejoin="round"/>
<path d="M23.8321 16.5523C24.2226 16.1618 24.2226 15.5286 23.8321 15.1381C23.4416 14.7476 22.8084 14.7476 22.4179 15.1381L23.8321 16.5523ZM16.9583 22.0119L16.2512 22.719C16.6418 23.1095 17.2749 23.1095 17.6654 22.719L16.9583 22.0119ZM14.5821 18.2214C14.1916 17.8309 13.5584 17.8309 13.1679 18.2214C12.7774 18.612 12.7774 19.2451 13.1679 19.6357L14.5821 18.2214ZM22.4179 15.1381L16.2512 21.3048L17.6654 22.719L23.8321 16.5523L22.4179 15.1381ZM17.6654 21.3048L14.5821 18.2214L13.1679 19.6357L16.2512 22.719L17.6654 21.3048Z" fill="white"/>
</svg>
